# MagicaVoxel @ Ephtracy

# group
o 

# material
mtllib plank broken.mtl
usemtl palette

# normals
vn -1 0 0
vn 1 0 0
vn 0 0 1
vn 0 0 -1
vn 0 -1 0
vn 0 1 0

# texcoords
vt 0.533203 0.5
vt 0.537109 0.5

# verts
v 2.3 2 -1.7
v 2.3 2 -1.8
v 2.3 2 -1.9
v 2.3 2 -2.1
v 2.3 2 -2.2
v 2.3 2 -2.3
v 2.3 2 -2.4
v 2.3 2.2 -2
v 2.3 2.2 -2.1
v 2.3 2.4 -1.7
v 2.3 2.4 -1.8
v 2.3 2.6 -1.7
v 2.3 2.6 -1.8
v 2.3 2.8 -2
v 2.3 2.8 -2.1
v 2.3 2.8 -2.3
v 2.3 2.8 -2.4
v 2.3 2.9 -2.2
v 2.3 2.9 -2.3
v 2.3 3 -2
v 2.3 3 -2.1
v 2.3 3 -2.2
v 2.3 3 -2.3
v 2.3 3.1 -2.3
v 2.3 3.1 -2.4
v 2.3 3.2 -1.7
v 2.3 3.2 -1.8
v 2.3 3.6 -1.9
v 2.3 3.6 -2
v 2.3 3.7 -1.8
v 2.3 3.7 -1.9
v 2.3 3.7 -2
v 2.3 3.7 -2.1
v 2.3 3.8 -1.7
v 2.3 3.8 -1.8
v 2.3 3.8 -2
v 2.3 3.8 -2.1
v 2.3 3.9 -2.1
v 2.3 3.9 -2.2
v 2.3 4 -2.2
v 2.3 4 -2.3
v 2.3 4 -2.4
v 2.4 2 -1.7
v 2.4 2 -1.8
v 2.4 2 -1.9
v 2.4 2 -2.1
v 2.4 2 -2.2
v 2.4 2 -2.3
v 2.4 2 -2.4
v 2.4 2.2 -2
v 2.4 2.2 -2.1
v 2.4 2.4 -1.7
v 2.4 2.4 -1.8
v 2.4 2.6 -1.7
v 2.4 2.6 -1.8
v 2.4 2.8 -2
v 2.4 2.8 -2.1
v 2.4 2.8 -2.3
v 2.4 2.8 -2.4
v 2.4 2.9 -2.2
v 2.4 2.9 -2.3
v 2.4 3 -2
v 2.4 3 -2.1
v 2.4 3 -2.2
v 2.4 3 -2.3
v 2.4 3.1 -2.3
v 2.4 3.1 -2.4
v 2.4 3.2 -1.7
v 2.4 3.2 -1.8
v 2.4 3.6 -1.9
v 2.4 3.6 -2
v 2.4 3.7 -1.8
v 2.4 3.7 -1.9
v 2.4 3.7 -2
v 2.4 3.7 -2.1
v 2.4 3.8 -1.7
v 2.4 3.8 -1.8
v 2.4 3.8 -2
v 2.4 3.8 -2.1
v 2.4 3.9 -2.1
v 2.4 3.9 -2.2
v 2.4 4 -2.2
v 2.4 4 -2.3
v 2.4 4 -2.4
v 2.3 2 -1.7
v 2.3 2.4 -1.7
v 2.3 2.6 -1.7
v 2.3 3.2 -1.7
v 2.3 3.8 -1.7
v 2.4 2 -1.7
v 2.4 2.4 -1.7
v 2.4 2.6 -1.7
v 2.4 3.2 -1.7
v 2.4 3.8 -1.7
v 2.3 3.6 -2
v 2.3 3.7 -2
v 2.3 3.8 -2
v 2.4 3.6 -2
v 2.4 3.7 -2
v 2.4 3.8 -2
v 2.3 3.8 -2.1
v 2.3 3.9 -2.1
v 2.4 3.8 -2.1
v 2.4 3.9 -2.1
v 2.3 3.9 -2.2
v 2.3 4 -2.2
v 2.4 3.9 -2.2
v 2.4 4 -2.2
v 2.3 3.7 -1.8
v 2.3 3.8 -1.8
v 2.4 3.7 -1.8
v 2.4 3.8 -1.8
v 2.3 3.6 -1.9
v 2.3 3.7 -1.9
v 2.4 3.6 -1.9
v 2.4 3.7 -1.9
v 2.3 2 -2.4
v 2.3 2.8 -2.4
v 2.3 3.1 -2.4
v 2.3 4 -2.4
v 2.4 2 -2.4
v 2.4 2.8 -2.4
v 2.4 3.1 -2.4
v 2.4 4 -2.4
v 2.3 2 -1.7
v 2.4 2 -1.7
v 2.3 2 -1.8
v 2.4 2 -1.8
v 2.3 2 -1.9
v 2.4 2 -1.9
v 2.3 2 -2.1
v 2.4 2 -2.1
v 2.3 2 -2.2
v 2.4 2 -2.2
v 2.3 2 -2.3
v 2.4 2 -2.3
v 2.3 2 -2.4
v 2.4 2 -2.4
v 2.3 3.6 -1.9
v 2.4 3.6 -1.9
v 2.3 3.6 -2
v 2.4 3.6 -2
v 2.3 3.7 -1.8
v 2.4 3.7 -1.8
v 2.3 3.7 -1.9
v 2.4 3.7 -1.9
v 2.3 3.8 -1.7
v 2.4 3.8 -1.7
v 2.3 3.8 -1.8
v 2.4 3.8 -1.8
v 2.3 3.8 -2
v 2.4 3.8 -2
v 2.3 3.8 -2.1
v 2.4 3.8 -2.1
v 2.3 3.9 -2.1
v 2.4 3.9 -2.1
v 2.3 3.9 -2.2
v 2.4 3.9 -2.2
v 2.3 4 -2.2
v 2.4 4 -2.2
v 2.3 4 -2.3
v 2.4 4 -2.3
v 2.3 4 -2.4
v 2.4 4 -2.4

# faces
f 8/2/1 4/2/1 3/2/1
f 9/1/1 5/1/1 4/1/1
f 9/2/1 4/2/1 8/2/1
f 10/2/1 2/2/1 1/2/1
f 11/1/1 3/1/1 2/1/1
f 11/2/1 2/2/1 10/2/1
f 12/1/1 11/1/1 10/1/1
f 13/1/1 3/1/1 11/1/1
f 13/1/1 11/1/1 12/1/1
f 14/2/1 8/2/1 3/2/1
f 14/1/1 9/1/1 8/1/1
f 15/1/1 5/1/1 9/1/1
f 15/1/1 9/1/1 14/1/1
f 16/1/1 7/1/1 6/1/1
f 16/2/1 6/2/1 5/2/1
f 17/1/1 7/1/1 16/1/1
f 18/1/1 5/1/1 15/1/1
f 18/2/1 16/2/1 5/2/1
f 18/2/1 17/2/1 16/2/1
f 19/2/1 17/2/1 18/2/1
f 20/2/1 14/2/1 3/2/1
f 20/2/1 15/2/1 14/2/1
f 21/1/1 19/1/1 18/1/1
f 21/2/1 15/2/1 20/2/1
f 21/1/1 18/1/1 15/1/1
f 22/1/1 19/1/1 21/1/1
f 23/2/1 17/2/1 19/2/1
f 23/1/1 19/1/1 22/1/1
f 24/2/1 23/2/1 22/2/1
f 24/2/1 17/2/1 23/2/1
f 25/2/1 17/2/1 24/2/1
f 26/2/1 13/2/1 12/2/1
f 27/1/1 3/1/1 13/1/1
f 27/2/1 13/2/1 26/2/1
f 28/2/1 20/2/1 3/2/1
f 28/1/1 3/1/1 27/1/1
f 28/1/1 27/1/1 26/1/1
f 29/1/1 22/1/1 21/1/1
f 29/2/1 20/2/1 28/2/1
f 29/1/1 21/1/1 20/1/1
f 30/1/1 28/1/1 26/1/1
f 31/1/1 28/1/1 30/1/1
f 32/1/1 22/1/1 29/1/1
f 33/1/1 22/1/1 32/1/1
f 34/1/1 30/1/1 26/1/1
f 35/1/1 30/1/1 34/1/1
f 36/2/1 33/2/1 32/2/1
f 37/1/1 22/1/1 33/1/1
f 37/2/1 33/2/1 36/2/1
f 38/1/1 22/1/1 37/1/1
f 39/2/1 24/2/1 22/2/1
f 39/1/1 22/1/1 38/1/1
f 40/2/1 24/2/1 39/2/1
f 41/1/1 25/1/1 24/1/1
f 41/2/1 24/2/1 40/2/1
f 42/1/1 25/1/1 41/1/1
f 45/2/2 46/2/2 50/2/2
f 46/1/2 47/1/2 51/1/2
f 50/2/2 46/2/2 51/2/2
f 43/2/2 44/2/2 52/2/2
f 44/1/2 45/1/2 53/1/2
f 52/2/2 44/2/2 53/2/2
f 52/1/2 53/1/2 54/1/2
f 53/1/2 45/1/2 55/1/2
f 54/1/2 53/1/2 55/1/2
f 45/2/2 50/2/2 56/2/2
f 50/1/2 51/1/2 56/1/2
f 51/1/2 47/1/2 57/1/2
f 56/1/2 51/1/2 57/1/2
f 48/1/2 49/1/2 58/1/2
f 47/2/2 48/2/2 58/2/2
f 58/1/2 49/1/2 59/1/2
f 57/1/2 47/1/2 60/1/2
f 47/2/2 58/2/2 60/2/2
f 58/2/2 59/2/2 60/2/2
f 60/2/2 59/2/2 61/2/2
f 45/2/2 56/2/2 62/2/2
f 56/2/2 57/2/2 62/2/2
f 60/1/2 61/1/2 63/1/2
f 62/2/2 57/2/2 63/2/2
f 57/1/2 60/1/2 63/1/2
f 63/1/2 61/1/2 64/1/2
f 61/2/2 59/2/2 65/2/2
f 64/1/2 61/1/2 65/1/2
f 64/2/2 65/2/2 66/2/2
f 65/2/2 59/2/2 66/2/2
f 66/2/2 59/2/2 67/2/2
f 54/2/2 55/2/2 68/2/2
f 55/1/2 45/1/2 69/1/2
f 68/2/2 55/2/2 69/2/2
f 45/2/2 62/2/2 70/2/2
f 69/1/2 45/1/2 70/1/2
f 68/1/2 69/1/2 70/1/2
f 63/1/2 64/1/2 71/1/2
f 70/2/2 62/2/2 71/2/2
f 62/1/2 63/1/2 71/1/2
f 68/1/2 70/1/2 72/1/2
f 72/1/2 70/1/2 73/1/2
f 71/1/2 64/1/2 74/1/2
f 74/1/2 64/1/2 75/1/2
f 68/1/2 72/1/2 76/1/2
f 76/1/2 72/1/2 77/1/2
f 74/2/2 75/2/2 78/2/2
f 75/1/2 64/1/2 79/1/2
f 78/2/2 75/2/2 79/2/2
f 79/1/2 64/1/2 80/1/2
f 64/2/2 66/2/2 81/2/2
f 80/1/2 64/1/2 81/1/2
f 81/2/2 66/2/2 82/2/2
f 66/1/2 67/1/2 83/1/2
f 82/2/2 66/2/2 83/2/2
f 83/1/2 67/1/2 84/1/2
f 90/2/3 86/2/3 85/2/3
f 91/1/3 87/1/3 86/1/3
f 91/2/3 86/2/3 90/2/3
f 92/2/3 88/2/3 87/2/3
f 92/1/3 87/1/3 91/1/3
f 93/1/3 89/1/3 88/1/3
f 93/2/3 88/2/3 92/2/3
f 94/1/3 89/1/3 93/1/3
f 98/1/3 96/1/3 95/1/3
f 99/2/3 97/2/3 96/2/3
f 99/1/3 96/1/3 98/1/3
f 100/2/3 97/2/3 99/2/3
f 103/1/3 102/1/3 101/1/3
f 104/1/3 102/1/3 103/1/3
f 107/2/3 106/2/3 105/2/3
f 108/2/3 106/2/3 107/2/3
f 109/1/4 110/1/4 111/1/4
f 111/1/4 110/1/4 112/1/4
f 113/1/4 114/1/4 115/1/4
f 115/1/4 114/1/4 116/1/4
f 117/1/4 118/1/4 121/1/4
f 118/2/4 119/2/4 122/2/4
f 121/1/4 118/1/4 122/1/4
f 119/1/4 120/1/4 123/1/4
f 122/2/4 119/2/4 123/2/4
f 123/1/4 120/1/4 124/1/4
f 127/2/5 126/2/5 125/2/5
f 128/2/5 126/2/5 127/2/5
f 129/1/5 128/1/5 127/1/5
f 130/1/5 128/1/5 129/1/5
f 131/2/5 130/2/5 129/2/5
f 132/2/5 130/2/5 131/2/5
f 133/1/5 132/1/5 131/1/5
f 134/1/5 132/1/5 133/1/5
f 135/2/5 134/2/5 133/2/5
f 136/2/5 134/2/5 135/2/5
f 137/1/5 136/1/5 135/1/5
f 138/1/5 136/1/5 137/1/5
f 139/2/6 140/2/6 141/2/6
f 141/2/6 140/2/6 142/2/6
f 143/1/6 144/1/6 145/1/6
f 145/1/6 144/1/6 146/1/6
f 147/1/6 148/1/6 149/1/6
f 149/1/6 148/1/6 150/1/6
f 151/2/6 152/2/6 153/2/6
f 153/2/6 152/2/6 154/2/6
f 155/1/6 156/1/6 157/1/6
f 157/1/6 156/1/6 158/1/6
f 159/2/6 160/2/6 161/2/6
f 161/2/6 160/2/6 162/2/6
f 161/1/6 162/1/6 163/1/6
f 163/1/6 162/1/6 164/1/6
