# MagicaVoxel @ Ephtracy

# group
o 

# material
mtllib table.mtl
usemtl palette

# normals
vn -1 0 0
vn 1 0 0
vn 0 0 1
vn 0 0 -1
vn 0 -1 0
vn 0 1 0

# texcoords
vt 0.255859 0.5
vt 0.396484 0.5
vt 0.537109 0.5

# verts
v 0.7 2 -1.6
v 0.7 2 -1.7
v 0.7 2 -2.5
v 0.7 2 -2.6
v 0.7 2.1 -1.6
v 0.7 2.1 -1.7
v 0.7 2.1 -2.5
v 0.7 2.1 -2.6
v 0.7 2.5 -1.6
v 0.7 2.5 -1.7
v 0.7 2.5 -2.5
v 0.7 2.5 -2.6
v 0.7 2.6 -1.5
v 0.7 2.6 -1.6
v 0.7 2.6 -1.7
v 0.7 2.6 -2.5
v 0.7 2.6 -2.6
v 0.7 2.6 -2.7
v 0.7 2.7 -1.5
v 0.7 2.7 -2.7
v 0.8 2 -1.5
v 0.8 2 -1.6
v 0.8 2 -2.6
v 0.8 2 -2.7
v 0.8 2.1 -1.5
v 0.8 2.1 -1.6
v 0.8 2.1 -1.7
v 0.8 2.1 -2.5
v 0.8 2.1 -2.6
v 0.8 2.1 -2.7
v 0.8 2.5 -1.5
v 0.8 2.5 -1.6
v 0.8 2.5 -1.7
v 0.8 2.5 -1.8
v 0.8 2.5 -2.4
v 0.8 2.5 -2.5
v 0.8 2.5 -2.6
v 0.8 2.5 -2.7
v 0.8 2.6 -1.5
v 0.8 2.6 -1.6
v 0.8 2.6 -1.7
v 0.8 2.6 -1.8
v 0.8 2.6 -2.4
v 0.8 2.6 -2.5
v 0.8 2.6 -2.6
v 0.8 2.6 -2.7
v 2 2.5 -1.6
v 2 2.5 -1.7
v 2 2.5 -2.5
v 2 2.5 -2.6
v 2 2.6 -1.6
v 2 2.6 -1.7
v 2 2.6 -2.5
v 2 2.6 -2.6
v 2.1 2 -1.5
v 2.1 2 -1.7
v 2.1 2 -2.5
v 2.1 2 -2.7
v 2.1 2.1 -1.5
v 2.1 2.1 -1.6
v 2.1 2.1 -2.6
v 2.1 2.1 -2.7
v 2.1 2.5 -1.5
v 2.1 2.5 -1.6
v 2.1 2.5 -1.7
v 2.1 2.5 -1.8
v 2.1 2.5 -2.4
v 2.1 2.5 -2.5
v 2.1 2.5 -2.6
v 2.1 2.5 -2.7
v 2.1 2.6 -1.5
v 2.1 2.6 -1.6
v 2.1 2.6 -1.7
v 2.1 2.6 -1.8
v 2.1 2.6 -2.4
v 2.1 2.6 -2.5
v 2.1 2.6 -2.6
v 2.1 2.6 -2.7
v 0.9 2 -1.5
v 0.9 2 -1.7
v 0.9 2 -2.5
v 0.9 2 -2.7
v 0.9 2.1 -1.5
v 0.9 2.1 -1.6
v 0.9 2.1 -2.6
v 0.9 2.1 -2.7
v 0.9 2.5 -1.5
v 0.9 2.5 -1.6
v 0.9 2.5 -1.7
v 0.9 2.5 -1.8
v 0.9 2.5 -2.4
v 0.9 2.5 -2.5
v 0.9 2.5 -2.6
v 0.9 2.5 -2.7
v 0.9 2.6 -1.5
v 0.9 2.6 -1.6
v 0.9 2.6 -1.7
v 0.9 2.6 -1.8
v 0.9 2.6 -2.4
v 0.9 2.6 -2.5
v 0.9 2.6 -2.6
v 0.9 2.6 -2.7
v 1 2.5 -1.6
v 1 2.5 -1.7
v 1 2.5 -2.5
v 1 2.5 -2.6
v 1 2.6 -1.6
v 1 2.6 -1.7
v 1 2.6 -2.5
v 1 2.6 -2.6
v 2.2 2 -1.5
v 2.2 2 -1.6
v 2.2 2 -2.6
v 2.2 2 -2.7
v 2.2 2.1 -1.5
v 2.2 2.1 -1.6
v 2.2 2.1 -1.7
v 2.2 2.1 -2.5
v 2.2 2.1 -2.6
v 2.2 2.1 -2.7
v 2.2 2.5 -1.5
v 2.2 2.5 -1.6
v 2.2 2.5 -1.7
v 2.2 2.5 -1.8
v 2.2 2.5 -2.4
v 2.2 2.5 -2.5
v 2.2 2.5 -2.6
v 2.2 2.5 -2.7
v 2.2 2.6 -1.5
v 2.2 2.6 -1.6
v 2.2 2.6 -1.7
v 2.2 2.6 -1.8
v 2.2 2.6 -2.4
v 2.2 2.6 -2.5
v 2.2 2.6 -2.6
v 2.2 2.6 -2.7
v 2.3 2 -1.6
v 2.3 2 -1.7
v 2.3 2 -2.5
v 2.3 2 -2.6
v 2.3 2.1 -1.6
v 2.3 2.1 -1.7
v 2.3 2.1 -2.5
v 2.3 2.1 -2.6
v 2.3 2.5 -1.6
v 2.3 2.5 -1.7
v 2.3 2.5 -2.5
v 2.3 2.5 -2.6
v 2.3 2.6 -1.5
v 2.3 2.6 -1.6
v 2.3 2.6 -1.7
v 2.3 2.6 -2.5
v 2.3 2.6 -2.6
v 2.3 2.6 -2.7
v 2.3 2.7 -1.5
v 2.3 2.7 -2.7
v 0.7 2.6 -1.5
v 0.7 2.7 -1.5
v 0.8 2 -1.5
v 0.8 2.1 -1.5
v 0.8 2.5 -1.5
v 0.8 2.6 -1.5
v 0.9 2 -1.5
v 0.9 2.1 -1.5
v 0.9 2.5 -1.5
v 0.9 2.6 -1.5
v 2.1 2 -1.5
v 2.1 2.1 -1.5
v 2.1 2.5 -1.5
v 2.1 2.6 -1.5
v 2.2 2 -1.5
v 2.2 2.1 -1.5
v 2.2 2.5 -1.5
v 2.2 2.6 -1.5
v 2.3 2.6 -1.5
v 2.3 2.7 -1.5
v 0.7 2 -1.6
v 0.7 2.1 -1.6
v 0.7 2.5 -1.6
v 0.7 2.6 -1.6
v 0.8 2 -1.6
v 0.8 2.1 -1.6
v 0.8 2.5 -1.6
v 0.8 2.6 -1.6
v 0.9 2.1 -1.6
v 0.9 2.5 -1.6
v 0.9 2.6 -1.6
v 1 2.5 -1.6
v 1 2.6 -1.6
v 2 2.5 -1.6
v 2 2.6 -1.6
v 2.1 2.1 -1.6
v 2.1 2.5 -1.6
v 2.1 2.6 -1.6
v 2.2 2 -1.6
v 2.2 2.1 -1.6
v 2.2 2.5 -1.6
v 2.2 2.6 -1.6
v 2.3 2 -1.6
v 2.3 2.1 -1.6
v 2.3 2.5 -1.6
v 2.3 2.6 -1.6
v 0.8 2.5 -2.4
v 0.8 2.6 -2.4
v 0.9 2.5 -2.4
v 0.9 2.6 -2.4
v 2.1 2.5 -2.4
v 2.1 2.6 -2.4
v 2.2 2.5 -2.4
v 2.2 2.6 -2.4
v 0.7 2 -2.5
v 0.7 2.1 -2.5
v 0.7 2.5 -2.5
v 0.7 2.6 -2.5
v 0.8 2.1 -2.5
v 0.8 2.5 -2.5
v 0.8 2.6 -2.5
v 0.9 2 -2.5
v 0.9 2.5 -2.5
v 0.9 2.6 -2.5
v 1 2.5 -2.5
v 1 2.6 -2.5
v 2 2.5 -2.5
v 2 2.6 -2.5
v 2.1 2 -2.5
v 2.1 2.5 -2.5
v 2.1 2.6 -2.5
v 2.2 2.1 -2.5
v 2.2 2.5 -2.5
v 2.2 2.6 -2.5
v 2.3 2 -2.5
v 2.3 2.1 -2.5
v 2.3 2.5 -2.5
v 2.3 2.6 -2.5
v 0.7 2 -1.7
v 0.7 2.1 -1.7
v 0.7 2.5 -1.7
v 0.7 2.6 -1.7
v 0.8 2.1 -1.7
v 0.8 2.5 -1.7
v 0.8 2.6 -1.7
v 0.9 2 -1.7
v 0.9 2.5 -1.7
v 0.9 2.6 -1.7
v 1 2.5 -1.7
v 1 2.6 -1.7
v 2 2.5 -1.7
v 2 2.6 -1.7
v 2.1 2 -1.7
v 2.1 2.5 -1.7
v 2.1 2.6 -1.7
v 2.2 2.1 -1.7
v 2.2 2.5 -1.7
v 2.2 2.6 -1.7
v 2.3 2 -1.7
v 2.3 2.1 -1.7
v 2.3 2.5 -1.7
v 2.3 2.6 -1.7
v 0.8 2.5 -1.8
v 0.8 2.6 -1.8
v 0.9 2.5 -1.8
v 0.9 2.6 -1.8
v 2.1 2.5 -1.8
v 2.1 2.6 -1.8
v 2.2 2.5 -1.8
v 2.2 2.6 -1.8
v 0.7 2 -2.6
v 0.7 2.1 -2.6
v 0.7 2.5 -2.6
v 0.7 2.6 -2.6
v 0.8 2 -2.6
v 0.8 2.1 -2.6
v 0.8 2.5 -2.6
v 0.8 2.6 -2.6
v 0.9 2.1 -2.6
v 0.9 2.5 -2.6
v 0.9 2.6 -2.6
v 1 2.5 -2.6
v 1 2.6 -2.6
v 2 2.5 -2.6
v 2 2.6 -2.6
v 2.1 2.1 -2.6
v 2.1 2.5 -2.6
v 2.1 2.6 -2.6
v 2.2 2 -2.6
v 2.2 2.1 -2.6
v 2.2 2.5 -2.6
v 2.2 2.6 -2.6
v 2.3 2 -2.6
v 2.3 2.1 -2.6
v 2.3 2.5 -2.6
v 2.3 2.6 -2.6
v 0.7 2.6 -2.7
v 0.7 2.7 -2.7
v 0.8 2 -2.7
v 0.8 2.1 -2.7
v 0.8 2.5 -2.7
v 0.8 2.6 -2.7
v 0.9 2 -2.7
v 0.9 2.1 -2.7
v 0.9 2.5 -2.7
v 0.9 2.6 -2.7
v 2.1 2 -2.7
v 2.1 2.1 -2.7
v 2.1 2.5 -2.7
v 2.1 2.6 -2.7
v 2.2 2 -2.7
v 2.2 2.1 -2.7
v 2.2 2.5 -2.7
v 2.2 2.6 -2.7
v 2.3 2.6 -2.7
v 2.3 2.7 -2.7
v 0.8 2 -1.5
v 0.9 2 -1.5
v 2.1 2 -1.5
v 2.2 2 -1.5
v 0.7 2 -1.6
v 0.8 2 -1.6
v 2.2 2 -1.6
v 2.3 2 -1.6
v 0.7 2 -1.7
v 0.9 2 -1.7
v 2.1 2 -1.7
v 2.3 2 -1.7
v 0.7 2 -2.5
v 0.9 2 -2.5
v 2.1 2 -2.5
v 2.3 2 -2.5
v 0.7 2 -2.6
v 0.8 2 -2.6
v 2.2 2 -2.6
v 2.3 2 -2.6
v 0.8 2 -2.7
v 0.9 2 -2.7
v 2.1 2 -2.7
v 2.2 2 -2.7
v 0.8 2.5 -1.5
v 0.9 2.5 -1.5
v 2.1 2.5 -1.5
v 2.2 2.5 -1.5
v 0.7 2.5 -1.6
v 0.8 2.5 -1.6
v 0.9 2.5 -1.6
v 1 2.5 -1.6
v 2 2.5 -1.6
v 2.1 2.5 -1.6
v 2.2 2.5 -1.6
v 2.3 2.5 -1.6
v 0.7 2.5 -1.7
v 0.8 2.5 -1.7
v 0.9 2.5 -1.7
v 1 2.5 -1.7
v 2 2.5 -1.7
v 2.1 2.5 -1.7
v 2.2 2.5 -1.7
v 2.3 2.5 -1.7
v 0.8 2.5 -1.8
v 0.9 2.5 -1.8
v 2.1 2.5 -1.8
v 2.2 2.5 -1.8
v 0.8 2.5 -2.4
v 0.9 2.5 -2.4
v 2.1 2.5 -2.4
v 2.2 2.5 -2.4
v 0.7 2.5 -2.5
v 0.8 2.5 -2.5
v 0.9 2.5 -2.5
v 1 2.5 -2.5
v 2 2.5 -2.5
v 2.1 2.5 -2.5
v 2.2 2.5 -2.5
v 2.3 2.5 -2.5
v 0.7 2.5 -2.6
v 0.8 2.5 -2.6
v 0.9 2.5 -2.6
v 1 2.5 -2.6
v 2 2.5 -2.6
v 2.1 2.5 -2.6
v 2.2 2.5 -2.6
v 2.3 2.5 -2.6
v 0.8 2.5 -2.7
v 0.9 2.5 -2.7
v 2.1 2.5 -2.7
v 2.2 2.5 -2.7
v 0.7 2.6 -1.5
v 0.8 2.6 -1.5
v 0.9 2.6 -1.5
v 2.1 2.6 -1.5
v 2.2 2.6 -1.5
v 2.3 2.6 -1.5
v 0.7 2.6 -1.6
v 0.8 2.6 -1.6
v 0.9 2.6 -1.6
v 1 2.6 -1.6
v 2 2.6 -1.6
v 2.1 2.6 -1.6
v 2.2 2.6 -1.6
v 2.3 2.6 -1.6
v 0.7 2.6 -1.7
v 0.8 2.6 -1.7
v 0.9 2.6 -1.7
v 1 2.6 -1.7
v 2 2.6 -1.7
v 2.1 2.6 -1.7
v 2.2 2.6 -1.7
v 2.3 2.6 -1.7
v 0.8 2.6 -1.8
v 0.9 2.6 -1.8
v 2.1 2.6 -1.8
v 2.2 2.6 -1.8
v 0.8 2.6 -2.4
v 0.9 2.6 -2.4
v 2.1 2.6 -2.4
v 2.2 2.6 -2.4
v 0.7 2.6 -2.5
v 0.8 2.6 -2.5
v 0.9 2.6 -2.5
v 1 2.6 -2.5
v 2 2.6 -2.5
v 2.1 2.6 -2.5
v 2.2 2.6 -2.5
v 2.3 2.6 -2.5
v 0.7 2.6 -2.6
v 0.8 2.6 -2.6
v 0.9 2.6 -2.6
v 1 2.6 -2.6
v 2 2.6 -2.6
v 2.1 2.6 -2.6
v 2.2 2.6 -2.6
v 2.3 2.6 -2.6
v 0.7 2.6 -2.7
v 0.8 2.6 -2.7
v 0.9 2.6 -2.7
v 2.1 2.6 -2.7
v 2.2 2.6 -2.7
v 2.3 2.6 -2.7
v 0.8 2.1 -1.5
v 0.9 2.1 -1.5
v 2.1 2.1 -1.5
v 2.2 2.1 -1.5
v 0.7 2.1 -1.6
v 0.8 2.1 -1.6
v 0.9 2.1 -1.6
v 2.1 2.1 -1.6
v 2.2 2.1 -1.6
v 2.3 2.1 -1.6
v 0.7 2.1 -1.7
v 0.8 2.1 -1.7
v 2.2 2.1 -1.7
v 2.3 2.1 -1.7
v 0.7 2.1 -2.5
v 0.8 2.1 -2.5
v 2.2 2.1 -2.5
v 2.3 2.1 -2.5
v 0.7 2.1 -2.6
v 0.8 2.1 -2.6
v 0.9 2.1 -2.6
v 2.1 2.1 -2.6
v 2.2 2.1 -2.6
v 2.3 2.1 -2.6
v 0.8 2.1 -2.7
v 0.9 2.1 -2.7
v 2.1 2.1 -2.7
v 2.2 2.1 -2.7
v 0.7 2.7 -1.5
v 2.3 2.7 -1.5
v 0.9 2.7 -1.7
v 2.1 2.7 -1.7
v 0.9 2.7 -2.5
v 2.1 2.7 -2.5
v 0.7 2.7 -2.7
v 2.3 2.7 -2.7

# faces
f 5/2/1 2/2/1 1/2/1
f 6/2/1 2/2/1 5/2/1
f 7/2/1 4/2/1 3/2/1
f 8/2/1 4/2/1 7/2/1
f 14/2/1 10/2/1 9/2/1
f 15/2/1 10/2/1 14/2/1
f 16/2/1 12/2/1 11/2/1
f 17/2/1 12/2/1 16/2/1
f 19/3/1 17/3/1 16/3/1
f 19/3/1 18/3/1 17/3/1
f 19/3/1 16/3/1 15/3/1
f 19/3/1 15/3/1 14/3/1
f 19/3/1 14/3/1 13/3/1
f 20/3/1 18/3/1 19/3/1
f 25/2/1 22/2/1 21/2/1
f 26/2/1 22/2/1 25/2/1
f 29/2/1 24/2/1 23/2/1
f 30/2/1 24/2/1 29/2/1
f 32/2/1 27/2/1 26/2/1
f 33/2/1 27/2/1 32/2/1
f 36/2/1 29/2/1 28/2/1
f 37/2/1 29/2/1 36/2/1
f 39/2/1 32/2/1 31/2/1
f 40/2/1 32/2/1 39/2/1
f 41/2/1 34/2/1 33/2/1
f 42/2/1 34/2/1 41/2/1
f 43/2/1 36/2/1 35/2/1
f 44/2/1 36/2/1 43/2/1
f 45/2/1 38/2/1 37/2/1
f 46/2/1 38/2/1 45/2/1
f 51/2/1 48/2/1 47/2/1
f 52/2/1 48/2/1 51/2/1
f 53/2/1 50/2/1 49/2/1
f 54/2/1 50/2/1 53/2/1
f 59/2/1 56/2/1 55/2/1
f 60/2/1 56/2/1 59/2/1
f 61/2/1 58/2/1 57/2/1
f 62/2/1 58/2/1 61/2/1
f 64/2/1 56/2/1 60/2/1
f 65/2/1 56/2/1 64/2/1
f 68/2/1 61/2/1 57/2/1
f 69/2/1 61/2/1 68/2/1
f 71/2/1 64/2/1 63/2/1
f 72/2/1 64/2/1 71/2/1
f 73/2/1 66/2/1 65/2/1
f 74/2/1 66/2/1 73/2/1
f 75/2/1 68/2/1 67/2/1
f 76/2/1 68/2/1 75/2/1
f 77/2/1 70/2/1 69/2/1
f 78/2/1 70/2/1 77/2/1
f 79/2/2 80/2/2 83/2/2
f 83/2/2 80/2/2 84/2/2
f 81/2/2 82/2/2 85/2/2
f 85/2/2 82/2/2 86/2/2
f 84/2/2 80/2/2 88/2/2
f 88/2/2 80/2/2 89/2/2
f 81/2/2 85/2/2 92/2/2
f 92/2/2 85/2/2 93/2/2
f 87/2/2 88/2/2 95/2/2
f 95/2/2 88/2/2 96/2/2
f 89/2/2 90/2/2 97/2/2
f 97/2/2 90/2/2 98/2/2
f 91/2/2 92/2/2 99/2/2
f 99/2/2 92/2/2 100/2/2
f 93/2/2 94/2/2 101/2/2
f 101/2/2 94/2/2 102/2/2
f 103/2/2 104/2/2 107/2/2
f 107/2/2 104/2/2 108/2/2
f 105/2/2 106/2/2 109/2/2
f 109/2/2 106/2/2 110/2/2
f 111/2/2 112/2/2 115/2/2
f 115/2/2 112/2/2 116/2/2
f 113/2/2 114/2/2 119/2/2
f 119/2/2 114/2/2 120/2/2
f 116/2/2 117/2/2 122/2/2
f 122/2/2 117/2/2 123/2/2
f 118/2/2 119/2/2 126/2/2
f 126/2/2 119/2/2 127/2/2
f 121/2/2 122/2/2 129/2/2
f 129/2/2 122/2/2 130/2/2
f 123/2/2 124/2/2 131/2/2
f 131/2/2 124/2/2 132/2/2
f 125/2/2 126/2/2 133/2/2
f 133/2/2 126/2/2 134/2/2
f 127/2/2 128/2/2 135/2/2
f 135/2/2 128/2/2 136/2/2
f 137/2/2 138/2/2 141/2/2
f 141/2/2 138/2/2 142/2/2
f 139/2/2 140/2/2 143/2/2
f 143/2/2 140/2/2 144/2/2
f 145/2/2 146/2/2 150/2/2
f 150/2/2 146/2/2 151/2/2
f 147/2/2 148/2/2 152/2/2
f 152/2/2 148/2/2 153/2/2
f 152/3/2 153/3/2 155/3/2
f 153/3/2 154/3/2 155/3/2
f 151/3/2 152/3/2 155/3/2
f 150/3/2 151/3/2 155/3/2
f 149/3/2 150/3/2 155/3/2
f 155/3/2 154/3/2 156/3/2
f 162/3/3 158/3/3 157/3/3
f 163/2/3 160/2/3 159/2/3
f 164/2/3 160/2/3 163/2/3
f 165/2/3 162/2/3 161/2/3
f 166/3/3 158/3/3 162/3/3
f 166/2/3 162/2/3 165/2/3
f 170/3/3 158/3/3 166/3/3
f 171/2/3 168/2/3 167/2/3
f 172/2/3 168/2/3 171/2/3
f 173/2/3 170/2/3 169/2/3
f 174/3/3 158/3/3 170/3/3
f 174/2/3 170/2/3 173/2/3
f 175/3/3 158/3/3 174/3/3
f 176/3/3 158/3/3 175/3/3
f 181/2/3 178/2/3 177/2/3
f 182/2/3 178/2/3 181/2/3
f 183/2/3 180/2/3 179/2/3
f 184/2/3 180/2/3 183/2/3
f 185/2/3 183/2/3 182/2/3
f 186/2/3 183/2/3 185/2/3
f 188/2/3 187/2/3 186/2/3
f 189/2/3 187/2/3 188/2/3
f 193/2/3 191/2/3 190/2/3
f 194/2/3 191/2/3 193/2/3
f 196/2/3 193/2/3 192/2/3
f 197/2/3 193/2/3 196/2/3
f 199/2/3 196/2/3 195/2/3
f 200/2/3 196/2/3 199/2/3
f 201/2/3 198/2/3 197/2/3
f 202/2/3 198/2/3 201/2/3
f 205/2/3 204/2/3 203/2/3
f 206/2/3 204/2/3 205/2/3
f 209/2/3 208/2/3 207/2/3
f 210/2/3 208/2/3 209/2/3
f 215/2/3 212/2/3 211/2/3
f 216/2/3 214/2/3 213/2/3
f 217/2/3 214/2/3 216/2/3
f 218/2/3 215/2/3 211/2/3
f 218/2/3 216/2/3 215/2/3
f 219/2/3 216/2/3 218/2/3
f 221/2/3 220/2/3 219/2/3
f 222/2/3 220/2/3 221/2/3
f 226/2/3 224/2/3 223/2/3
f 227/2/3 224/2/3 226/2/3
f 228/2/3 226/2/3 225/2/3
f 229/2/3 226/2/3 228/2/3
f 231/2/3 228/2/3 225/2/3
f 232/2/3 228/2/3 231/2/3
f 233/2/3 230/2/3 229/2/3
f 234/2/3 230/2/3 233/2/3
f 235/2/4 236/2/4 239/2/4
f 237/2/4 238/2/4 240/2/4
f 240/2/4 238/2/4 241/2/4
f 235/2/4 239/2/4 242/2/4
f 239/2/4 240/2/4 242/2/4
f 242/2/4 240/2/4 243/2/4
f 243/2/4 244/2/4 245/2/4
f 245/2/4 244/2/4 246/2/4
f 247/2/4 248/2/4 250/2/4
f 250/2/4 248/2/4 251/2/4
f 249/2/4 250/2/4 252/2/4
f 252/2/4 250/2/4 253/2/4
f 249/2/4 252/2/4 255/2/4
f 255/2/4 252/2/4 256/2/4
f 253/2/4 254/2/4 257/2/4
f 257/2/4 254/2/4 258/2/4
f 259/2/4 260/2/4 261/2/4
f 261/2/4 260/2/4 262/2/4
f 263/2/4 264/2/4 265/2/4
f 265/2/4 264/2/4 266/2/4
f 267/2/4 268/2/4 271/2/4
f 271/2/4 268/2/4 272/2/4
f 269/2/4 270/2/4 273/2/4
f 273/2/4 270/2/4 274/2/4
f 272/2/4 273/2/4 275/2/4
f 275/2/4 273/2/4 276/2/4
f 276/2/4 277/2/4 278/2/4
f 278/2/4 277/2/4 279/2/4
f 280/2/4 281/2/4 283/2/4
f 283/2/4 281/2/4 284/2/4
f 282/2/4 283/2/4 286/2/4
f 286/2/4 283/2/4 287/2/4
f 285/2/4 286/2/4 289/2/4
f 289/2/4 286/2/4 290/2/4
f 287/2/4 288/2/4 291/2/4
f 291/2/4 288/2/4 292/2/4
f 293/3/4 294/3/4 298/3/4
f 295/2/4 296/2/4 299/2/4
f 299/2/4 296/2/4 300/2/4
f 297/2/4 298/2/4 301/2/4
f 298/3/4 294/3/4 302/3/4
f 301/2/4 298/2/4 302/2/4
f 302/3/4 294/3/4 306/3/4
f 303/2/4 304/2/4 307/2/4
f 307/2/4 304/2/4 308/2/4
f 305/2/4 306/2/4 309/2/4
f 306/3/4 294/3/4 310/3/4
f 309/2/4 306/2/4 310/2/4
f 310/3/4 294/3/4 311/3/4
f 311/3/4 294/3/4 312/3/4
f 318/2/5 314/2/5 313/2/5
f 319/2/5 316/2/5 315/2/5
f 321/2/5 318/2/5 317/2/5
f 322/2/5 314/2/5 318/2/5
f 322/2/5 318/2/5 321/2/5
f 323/2/5 320/2/5 319/2/5
f 323/2/5 319/2/5 315/2/5
f 324/2/5 320/2/5 323/2/5
f 329/2/5 326/2/5 325/2/5
f 330/2/5 326/2/5 329/2/5
f 331/2/5 328/2/5 327/2/5
f 332/2/5 328/2/5 331/2/5
f 333/2/5 326/2/5 330/2/5
f 334/2/5 326/2/5 333/2/5
f 335/2/5 331/2/5 327/2/5
f 336/2/5 331/2/5 335/2/5
f 342/2/5 338/2/5 337/2/5
f 343/2/5 338/2/5 342/2/5
f 346/2/5 340/2/5 339/2/5
f 347/2/5 340/2/5 346/2/5
f 349/2/5 342/2/5 341/2/5
f 350/2/5 342/2/5 349/2/5
f 351/2/5 344/2/5 343/2/5
f 352/2/5 344/2/5 351/2/5
f 353/2/5 346/2/5 345/2/5
f 354/2/5 346/2/5 353/2/5
f 355/2/5 348/2/5 347/2/5
f 356/2/5 348/2/5 355/2/5
f 357/2/5 351/2/5 350/2/5
f 358/2/5 351/2/5 357/2/5
f 359/2/5 355/2/5 354/2/5
f 360/2/5 355/2/5 359/2/5
f 366/2/5 362/2/5 361/2/5
f 367/2/5 362/2/5 366/2/5
f 370/2/5 364/2/5 363/2/5
f 371/2/5 364/2/5 370/2/5
f 373/2/5 366/2/5 365/2/5
f 374/2/5 366/2/5 373/2/5
f 375/2/5 368/2/5 367/2/5
f 376/2/5 368/2/5 375/2/5
f 377/2/5 370/2/5 369/2/5
f 378/2/5 370/2/5 377/2/5
f 379/2/5 372/2/5 371/2/5
f 380/2/5 372/2/5 379/2/5
f 381/2/5 375/2/5 374/2/5
f 382/2/5 375/2/5 381/2/5
f 383/2/5 379/2/5 378/2/5
f 384/2/5 379/2/5 383/2/5
f 391/3/5 386/3/5 385/3/5
f 392/3/5 386/3/5 391/3/5
f 393/3/5 388/3/5 387/3/5
f 394/3/5 388/3/5 393/3/5
f 395/3/5 388/3/5 394/3/5
f 396/3/5 388/3/5 395/3/5
f 397/3/5 390/3/5 389/3/5
f 398/3/5 390/3/5 397/3/5
f 402/3/5 395/3/5 394/3/5
f 403/3/5 395/3/5 402/3/5
f 407/3/5 400/3/5 399/3/5
f 408/1/5 402/1/5 401/1/5
f 408/1/5 403/1/5 402/1/5
f 408/1/5 404/1/5 403/1/5
f 409/1/5 404/1/5 408/1/5
f 410/3/5 406/3/5 405/3/5
f 411/3/5 407/3/5 399/3/5
f 411/3/5 408/3/5 407/3/5
f 412/1/5 409/1/5 408/1/5
f 412/3/5 408/3/5 411/3/5
f 413/3/5 410/3/5 409/3/5
f 413/1/5 409/1/5 412/1/5
f 414/3/5 406/3/5 410/3/5
f 414/3/5 410/3/5 413/3/5
f 415/3/5 411/3/5 399/3/5
f 416/3/5 411/3/5 415/3/5
f 417/1/5 413/1/5 412/1/5
f 418/1/5 413/1/5 417/1/5
f 419/1/5 413/1/5 418/1/5
f 420/1/5 413/1/5 419/1/5
f 421/3/5 406/3/5 414/3/5
f 422/3/5 406/3/5 421/3/5
f 426/3/5 419/3/5 418/3/5
f 427/3/5 419/3/5 426/3/5
f 431/3/5 424/3/5 423/3/5
f 432/3/5 424/3/5 431/3/5
f 433/3/5 426/3/5 425/3/5
f 433/3/5 427/3/5 426/3/5
f 433/3/5 428/3/5 427/3/5
f 434/3/5 428/3/5 433/3/5
f 435/3/5 430/3/5 429/3/5
f 436/3/5 430/3/5 435/3/5
f 437/2/6 438/2/6 442/2/6
f 442/2/6 438/2/6 443/2/6
f 439/2/6 440/2/6 444/2/6
f 444/2/6 440/2/6 445/2/6
f 441/2/6 442/2/6 447/2/6
f 447/2/6 442/2/6 448/2/6
f 445/2/6 446/2/6 449/2/6
f 449/2/6 446/2/6 450/2/6
f 451/2/6 452/2/6 455/2/6
f 455/2/6 452/2/6 456/2/6
f 453/2/6 454/2/6 459/2/6
f 459/2/6 454/2/6 460/2/6
f 456/2/6 457/2/6 461/2/6
f 461/2/6 457/2/6 462/2/6
f 458/2/6 459/2/6 463/2/6
f 463/2/6 459/2/6 464/2/6
f 465/3/6 466/3/6 467/3/6
f 467/3/6 466/3/6 468/3/6
f 465/3/6 467/3/6 469/3/6
f 467/1/6 468/1/6 469/1/6
f 468/3/6 466/3/6 470/3/6
f 469/1/6 468/1/6 470/1/6
f 465/3/6 469/3/6 471/3/6
f 469/3/6 470/3/6 471/3/6
f 470/3/6 466/3/6 472/3/6
f 471/3/6 470/3/6 472/3/6
