# MagicaVoxel @ Ephtracy

# group
o 

# material
mtllib door.mtl
usemtl palette

# normals
vn -1 0 0
vn 1 0 0
vn 0 0 1
vn 0 0 -1
vn 0 -1 0
vn 0 1 0

# texcoords
vt 0.162109 0.5
vt 0.373047 0.5
vt 0.708984 0.5

# verts
v 0.8 2.1 -2.5
v 0.8 2.1 -2.7
v 0.8 5.8 -2.5
v 0.8 5.8 -2.7
v 0.9 3.7 -2.4
v 0.9 3.7 -2.5
v 0.9 3.7 -2.7
v 0.9 3.7 -2.8
v 0.9 3.9 -2.4
v 0.9 3.9 -2.5
v 0.9 3.9 -2.7
v 0.9 3.9 -2.8
v 1.1 3.7 -2.4
v 1.1 3.7 -2.5
v 1.1 3.7 -2.7
v 1.1 3.7 -2.8
v 1.1 3.9 -2.4
v 1.1 3.9 -2.5
v 1.1 3.9 -2.7
v 1.1 3.9 -2.8
v 2.6 2.1 -2.5
v 2.6 2.1 -2.7
v 2.6 5.8 -2.5
v 2.6 5.8 -2.7
v 0.9 3.7 -2.4
v 0.9 3.9 -2.4
v 1.1 3.7 -2.4
v 1.1 3.9 -2.4
v 0.8 2.1 -2.5
v 0.8 5.8 -2.5
v 0.9 3.7 -2.5
v 0.9 3.9 -2.5
v 1.1 3.7 -2.5
v 1.1 3.9 -2.5
v 1.4 4.8 -2.5
v 1.4 4.9 -2.5
v 1.5 4.7 -2.5
v 1.5 4.8 -2.5
v 1.5 4.9 -2.5
v 1.5 5 -2.5
v 1.6 4.6 -2.5
v 1.6 4.7 -2.5
v 1.6 5 -2.5
v 1.6 5.1 -2.5
v 1.7 4.4 -2.5
v 1.7 4.6 -2.5
v 1.7 5.1 -2.5
v 1.7 5.2 -2.5
v 1.8 4.4 -2.5
v 1.8 4.6 -2.5
v 1.8 5.1 -2.5
v 1.8 5.2 -2.5
v 1.9 4.6 -2.5
v 1.9 4.7 -2.5
v 1.9 5 -2.5
v 1.9 5.1 -2.5
v 2 4.7 -2.5
v 2 4.8 -2.5
v 2 4.9 -2.5
v 2 5 -2.5
v 2.1 4.8 -2.5
v 2.1 4.9 -2.5
v 2.6 2.1 -2.5
v 2.6 5.8 -2.5
v 0.8 2.1 -2.7
v 0.8 5.8 -2.7
v 0.9 3.7 -2.7
v 0.9 3.9 -2.7
v 1.1 3.7 -2.7
v 1.1 3.9 -2.7
v 1.4 4.8 -2.7
v 1.4 4.9 -2.7
v 1.5 4.7 -2.7
v 1.5 4.8 -2.7
v 1.5 4.9 -2.7
v 1.5 5 -2.7
v 1.6 4.6 -2.7
v 1.6 4.7 -2.7
v 1.6 5 -2.7
v 1.6 5.1 -2.7
v 1.7 4.4 -2.7
v 1.7 4.6 -2.7
v 1.7 5.1 -2.7
v 1.7 5.2 -2.7
v 1.8 4.4 -2.7
v 1.8 4.6 -2.7
v 1.8 5.1 -2.7
v 1.8 5.2 -2.7
v 1.9 4.6 -2.7
v 1.9 4.7 -2.7
v 1.9 5 -2.7
v 1.9 5.1 -2.7
v 2 4.7 -2.7
v 2 4.8 -2.7
v 2 4.9 -2.7
v 2 5 -2.7
v 2.1 4.8 -2.7
v 2.1 4.9 -2.7
v 2.6 2.1 -2.7
v 2.6 5.8 -2.7
v 0.9 3.7 -2.8
v 0.9 3.9 -2.8
v 1.1 3.7 -2.8
v 1.1 3.9 -2.8
v 0.8 2.1 -2.5
v 2.6 2.1 -2.5
v 0.8 2.1 -2.7
v 2.6 2.1 -2.7
v 0.9 3.7 -2.4
v 1.1 3.7 -2.4
v 0.9 3.7 -2.5
v 1.1 3.7 -2.5
v 0.9 3.7 -2.7
v 1.1 3.7 -2.7
v 0.9 3.7 -2.8
v 1.1 3.7 -2.8
v 0.9 3.9 -2.4
v 1.1 3.9 -2.4
v 0.9 3.9 -2.5
v 1.1 3.9 -2.5
v 0.9 3.9 -2.7
v 1.1 3.9 -2.7
v 0.9 3.9 -2.8
v 1.1 3.9 -2.8
v 0.8 5.8 -2.5
v 2.6 5.8 -2.5
v 0.8 5.8 -2.7
v 2.6 5.8 -2.7

# faces
f 3/2/1 2/2/1 1/2/1
f 4/2/1 2/2/1 3/2/1
f 9/1/1 6/1/1 5/1/1
f 10/1/1 6/1/1 9/1/1
f 11/1/1 8/1/1 7/1/1
f 12/1/1 8/1/1 11/1/1
f 13/1/2 14/1/2 17/1/2
f 17/1/2 14/1/2 18/1/2
f 15/1/2 16/1/2 19/1/2
f 19/1/2 16/1/2 20/1/2
f 21/2/2 22/2/2 23/2/2
f 23/2/2 22/2/2 24/2/2
f 27/1/3 26/1/3 25/1/3
f 28/1/3 26/1/3 27/1/3
f 31/2/3 30/2/3 29/2/3
f 32/2/3 30/2/3 31/2/3
f 33/2/3 31/2/3 29/2/3
f 34/2/3 30/2/3 32/2/3
f 35/2/3 30/2/3 34/2/3
f 35/2/3 34/2/3 33/2/3
f 36/2/3 30/2/3 35/2/3
f 37/2/3 35/2/3 33/2/3
f 38/3/3 36/3/3 35/3/3
f 38/2/3 35/2/3 37/2/3
f 39/2/3 30/2/3 36/2/3
f 39/3/3 36/3/3 38/3/3
f 40/2/3 30/2/3 39/2/3
f 41/2/3 37/2/3 33/2/3
f 42/3/3 38/3/3 37/3/3
f 42/2/3 37/2/3 41/2/3
f 42/3/3 39/3/3 38/3/3
f 42/3/3 40/3/3 39/3/3
f 43/2/3 30/2/3 40/2/3
f 43/3/3 40/3/3 42/3/3
f 44/2/3 30/2/3 43/2/3
f 45/2/3 41/2/3 33/2/3
f 46/3/3 42/3/3 41/3/3
f 46/2/3 41/2/3 45/2/3
f 46/3/3 43/3/3 42/3/3
f 46/3/3 44/3/3 43/3/3
f 47/2/3 30/2/3 44/2/3
f 47/3/3 44/3/3 46/3/3
f 48/2/3 30/2/3 47/2/3
f 49/3/3 46/3/3 45/3/3
f 49/2/3 45/2/3 33/2/3
f 49/3/3 48/3/3 47/3/3
f 49/3/3 47/3/3 46/3/3
f 50/3/3 48/3/3 49/3/3
f 51/3/3 48/3/3 50/3/3
f 52/2/3 30/2/3 48/2/3
f 52/3/3 48/3/3 51/3/3
f 53/3/3 51/3/3 50/3/3
f 53/2/3 50/2/3 49/2/3
f 54/3/3 51/3/3 53/3/3
f 55/3/3 51/3/3 54/3/3
f 56/2/3 52/2/3 51/2/3
f 56/3/3 51/3/3 55/3/3
f 57/3/3 55/3/3 54/3/3
f 57/2/3 54/2/3 53/2/3
f 58/3/3 55/3/3 57/3/3
f 59/3/3 55/3/3 58/3/3
f 60/2/3 56/2/3 55/2/3
f 60/3/3 55/3/3 59/3/3
f 61/3/3 59/3/3 58/3/3
f 61/2/3 58/2/3 57/2/3
f 62/2/3 60/2/3 59/2/3
f 62/3/3 59/3/3 61/3/3
f 63/2/3 33/2/3 29/2/3
f 63/2/3 49/2/3 33/2/3
f 63/2/3 62/2/3 61/2/3
f 63/2/3 61/2/3 57/2/3
f 63/2/3 57/2/3 53/2/3
f 63/2/3 53/2/3 49/2/3
f 64/2/3 60/2/3 62/2/3
f 64/2/3 62/2/3 63/2/3
f 64/2/3 30/2/3 52/2/3
f 64/2/3 52/2/3 56/2/3
f 64/2/3 56/2/3 60/2/3
f 65/2/4 66/2/4 67/2/4
f 67/2/4 66/2/4 68/2/4
f 65/2/4 67/2/4 69/2/4
f 68/2/4 66/2/4 70/2/4
f 70/2/4 66/2/4 71/2/4
f 69/2/4 70/2/4 71/2/4
f 71/2/4 66/2/4 72/2/4
f 69/2/4 71/2/4 73/2/4
f 71/3/4 72/3/4 74/3/4
f 73/2/4 71/2/4 74/2/4
f 72/2/4 66/2/4 75/2/4
f 74/3/4 72/3/4 75/3/4
f 75/2/4 66/2/4 76/2/4
f 69/2/4 73/2/4 77/2/4
f 73/3/4 74/3/4 78/3/4
f 77/2/4 73/2/4 78/2/4
f 74/3/4 75/3/4 78/3/4
f 75/3/4 76/3/4 78/3/4
f 76/2/4 66/2/4 79/2/4
f 78/3/4 76/3/4 79/3/4
f 79/2/4 66/2/4 80/2/4
f 69/2/4 77/2/4 81/2/4
f 77/3/4 78/3/4 82/3/4
f 81/2/4 77/2/4 82/2/4
f 78/3/4 79/3/4 82/3/4
f 79/3/4 80/3/4 82/3/4
f 80/2/4 66/2/4 83/2/4
f 82/3/4 80/3/4 83/3/4
f 83/2/4 66/2/4 84/2/4
f 81/3/4 82/3/4 85/3/4
f 69/2/4 81/2/4 85/2/4
f 83/3/4 84/3/4 85/3/4
f 82/3/4 83/3/4 85/3/4
f 85/3/4 84/3/4 86/3/4
f 86/3/4 84/3/4 87/3/4
f 84/2/4 66/2/4 88/2/4
f 87/3/4 84/3/4 88/3/4
f 86/3/4 87/3/4 89/3/4
f 85/2/4 86/2/4 89/2/4
f 89/3/4 87/3/4 90/3/4
f 90/3/4 87/3/4 91/3/4
f 87/2/4 88/2/4 92/2/4
f 91/3/4 87/3/4 92/3/4
f 90/3/4 91/3/4 93/3/4
f 89/2/4 90/2/4 93/2/4
f 93/3/4 91/3/4 94/3/4
f 94/3/4 91/3/4 95/3/4
f 91/2/4 92/2/4 96/2/4
f 95/3/4 91/3/4 96/3/4
f 94/3/4 95/3/4 97/3/4
f 93/2/4 94/2/4 97/2/4
f 95/2/4 96/2/4 98/2/4
f 97/3/4 95/3/4 98/3/4
f 65/2/4 69/2/4 99/2/4
f 69/2/4 85/2/4 99/2/4
f 97/2/4 98/2/4 99/2/4
f 93/2/4 97/2/4 99/2/4
f 89/2/4 93/2/4 99/2/4
f 85/2/4 89/2/4 99/2/4
f 98/2/4 96/2/4 100/2/4
f 99/2/4 98/2/4 100/2/4
f 88/2/4 66/2/4 100/2/4
f 92/2/4 88/2/4 100/2/4
f 96/2/4 92/2/4 100/2/4
f 101/1/4 102/1/4 103/1/4
f 103/1/4 102/1/4 104/1/4
f 107/2/5 106/2/5 105/2/5
f 108/2/5 106/2/5 107/2/5
f 111/1/5 110/1/5 109/1/5
f 112/1/5 110/1/5 111/1/5
f 115/1/5 114/1/5 113/1/5
f 116/1/5 114/1/5 115/1/5
f 117/1/6 118/1/6 119/1/6
f 119/1/6 118/1/6 120/1/6
f 121/1/6 122/1/6 123/1/6
f 123/1/6 122/1/6 124/1/6
f 125/2/6 126/2/6 127/2/6
f 127/2/6 126/2/6 128/2/6
